<?xml version="1.0" standalone="no"?><!DOCTYPE svg PUBLIC "-//W3C//DTD SVG 1.1//EN" "http://www.w3.org/Graphics/SVG/1.1/DTD/svg11.dtd"><svg t="1742476034901" class="icon" viewBox="0 0 1024 1024" version="1.1" xmlns="http://www.w3.org/2000/svg" p-id="8530" xmlns:xlink="http://www.w3.org/1999/xlink" width="200" height="200"><path d="M511.333 811.909c-25.489 0-50.305-2.329-74.446-6.28l-174.47 105.847V735.258c-90.958-63.906-149.35-161.849-149.35-271.833 0-192.454 178.301-348.483 398.267-348.483S909.6 270.972 909.6 463.426c0 192.485-178.301 348.483-398.267 348.483z m0-647.183c-192.424 0-348.483 133.726-348.483 298.7 0 101.221 58.882 190.494 148.737 244.535l-1.594 115.436 117.182-70.432c26.991 5.79 55.053 9.16 84.127 9.16 192.485 0 348.483-133.726 348.483-298.7 0.032-164.942-155.966-298.699-348.452-298.699z m199.134 348.7c-27.6 0-50-22.369-50-50s22.4-50 50-50 50 22.4 50 50-22.401 50-50 50z m-199.134 0c-27.569 0-50-22.369-50-50s22.431-50 50-50c27.6 0 50 22.4 50 50s-22.4 50-50 50z m-199.133 0c-27.569 0-50-22.369-50-50s22.431-50 50-50c27.6 0 50 22.4 50 50s-22.4 50-50 50z" fill="#3d655f" p-id="8531"></path></svg>